<?xml version="1.0" encoding="UTF-8"?><svg id="Capa_2" xmlns="http://www.w3.org/2000/svg" viewBox="0 0 300 150"><defs><style>.cls-1{fill:#f0eb0b;}.cls-2{fill:#ffea06;}.cls-3{fill:#40becb;}.cls-4{fill:#35c2ce;}.cls-5{fill:#58575a;}</style></defs><g><path d="m31.47,73.83c-.27,1.56-1.42,2.59-3.47,2.59-2.44,0-3.62-1.65-3.62-3.81s1.17-3.92,3.73-3.92c2.19,0,3.19,1.27,3.34,2.57h-2.17c-.1-.54-.41-1.03-1.22-1.03-1.06,0-1.43,1.01-1.43,2.31,0,1.18.3,2.35,1.45,2.35.87,0,1.11-.63,1.21-1.05h2.18Z"/><path d="m39.58,68.83h2.19v5.84h3.52l-.24,1.62h-5.47v-7.46Z"/><path d="m55.4,68.83v7.46h-2.19v-7.46h2.19Zm1.84-2.05l-2.08,1.48h-1.78l1.45-1.48h2.42Z"/><path d="m64,76.29v-7.46h2.62c.79,1.68,1.92,3.95,2.23,4.87h.04c-.08-.78-.1-2.09-.1-3.28v-1.59h1.99v7.46h-2.49c-.63-1.35-1.98-4.15-2.33-5.13h-.03c.07.7.08,2.15.08,3.46v1.68h-2Z"/><path d="m81.57,68.83v7.46h-2.19v-7.46h2.19Z"/><path d="m96.93,73.83c-.27,1.56-1.42,2.59-3.47,2.59-2.44,0-3.62-1.65-3.62-3.81s1.17-3.92,3.73-3.92c2.19,0,3.19,1.27,3.34,2.57h-2.17c-.1-.54-.41-1.03-1.22-1.03-1.06,0-1.43,1.01-1.43,2.31,0,1.18.3,2.35,1.45,2.35.87,0,1.11-.63,1.21-1.05h2.18Z"/><path d="m106.89,74.84l-.43,1.45h-2.13l2.36-7.46h2.83l2.45,7.46h-2.28l-.45-1.45h-2.34Zm1.96-1.62c-.35-1.17-.64-2.21-.81-2.94h-.03c-.17.8-.46,1.87-.76,2.94h1.6Z"/><path d="m131.03,76.29l-2.55-7.46h2.32l.92,3.2c.29,1,.46,1.68.63,2.52h.03c.14-.77.34-1.46.64-2.5l.95-3.23h2.24l-2.61,7.46h-2.58Z"/><path d="m149.53,73.27h-3.4v1.4h3.79l-.24,1.62h-5.65v-7.46h5.65v1.62h-3.54v1.2h3.4v1.62Z"/><path d="m159.68,70.45h-2.13v-1.62h6.44v1.62h-2.11v5.84h-2.19v-5.84Z"/><path d="m177.45,73.27h-3.4v1.4h3.79l-.24,1.62h-5.65v-7.46h5.65v1.62h-3.54v1.2h3.4v1.62Z"/><path d="m188.02,73.47v2.82h-2.12v-7.46h3.7c1.76,0,2.61.94,2.61,2.07,0,1.03-.6,1.56-1.12,1.77.47.16.97.66.97,1.93v.31c0,.46.01,1.07.1,1.39h-2.08c-.13-.32-.16-.86-.16-1.63v-.19c0-.64-.15-1-1.12-1h-.77Zm0-1.52h1.01c.73,0,.99-.3.99-.8s-.31-.79-.98-.79h-1.02v1.59Z"/><path d="m202.66,68.83v7.46h-2.19v-7.46h2.19Z"/><path d="m211.27,76.29v-7.46h2.62c.78,1.68,1.92,3.95,2.23,4.87h.04c-.08-.78-.1-2.09-.1-3.28v-1.59h1.99v7.46h-2.49c-.63-1.35-1.98-4.15-2.33-5.13h-.03c.07.7.08,2.15.08,3.46v1.68h-2Z"/><path d="m228.53,74.84l-.43,1.45h-2.13l2.36-7.46h2.83l2.45,7.46h-2.28l-.45-1.45h-2.34Zm1.96-1.62c-.35-1.17-.64-2.21-.81-2.94h-.03c-.17.8-.46,1.87-.76,2.94h1.6Z"/><path d="m243.58,73.47v2.82h-2.12v-7.46h3.7c1.76,0,2.61.94,2.61,2.07,0,1.03-.6,1.56-1.12,1.77.47.16.97.66.97,1.93v.31c0,.46.01,1.07.1,1.39h-2.08c-.13-.32-.16-.86-.16-1.63v-.19c0-.64-.15-1-1.12-1h-.77Zm0-1.52h1.01c.73,0,.99-.3.99-.8s-.32-.79-.98-.79h-1.02v1.59Z"/><path d="m258.21,68.83v7.46h-2.19v-7.46h2.19Z"/><path d="m268.71,74.84l-.43,1.45h-2.13l2.36-7.46h2.83l2.45,7.46h-2.28l-.45-1.45h-2.34Zm1.96-1.62c-.35-1.17-.64-2.21-.81-2.94h-.03c-.17.8-.46,1.87-.76,2.94h1.6Z"/></g><circle class="cls-4" cx="61.09" cy="57.21" r="4.08"/><g><path class="cls-4" d="m8.55,61.29V23.08h12.79c6.02,0,10.16.86,13.97,4.57,3.6,3.49,5.48,8.49,5.48,14.73,0,6.93-2.63,12.52-7.58,16.07-3.33,2.42-6.93,2.85-11.66,2.85h-13.01Zm24.62-19.13c0-7.95-4.52-12.58-12.2-12.58h-4.89v25.15h5c8.22,0,12.09-3.87,12.09-12.58Z"/><path class="cls-4" d="m50.02,46.57v14.73h-6.72v-28.86h6.29v3.33c1.99-2.53,4.3-3.76,7.42-3.76v6.29c-5.75.43-6.99,2.9-6.99,8.28Z"/></g><path class="cls-5" d="m109.15,60.58l-4.26-23.56-8.84,23.56h-5.11l-8.84-23.56-4.26,23.56h-7.56l7.03-37.86h7.88l8.31,23.64,8.36-23.64h7.83l7.03,37.86h-7.56Z"/><path class="cls-5" d="m159.93,51.8c0,2.51,1.44,4.1,3.34,4.1s3.18-1.23,3.18-3.03-.87-2.62-2.98-3.59c-2.41-1.13-4.31-1.64-5.18-2.36-2-1.64-2.98-3.64-2.98-6.31,0-4.67,3.75-8.31,8.36-8.31,4.87,0,7.9,2.98,8.16,8.11h-5.75v-.15c0-1.8-.98-2.82-2.62-2.82-1.44,0-2.51,1.13-2.51,2.57,0,2.15,1.85,2.51,5.23,4,4.26,1.9,6.16,3.8,6.16,8.41,0,5.13-3.9,8.88-9.18,8.88s-8.77-3.69-9.08-9.85h5.85v.36Z"/><path class="cls-5" d="m191.08,38.51c-4.31,0-7.64,3.44-7.64,8.26s3.34,8.16,7.85,8.16c3.49,0,5.8-1.49,6.93-4.46h6.82c-1.64,6.77-6.77,10.83-13.7,10.83-4.1,0-7.59-1.49-10.36-4.31-2.67-2.72-4.16-6.52-4.16-10.16,0-3.85,1.33-7.29,3.95-10.01,2.87-3.03,6.52-4.62,10.67-4.62,6.67,0,12.06,4.05,13.65,10.62h-6.82c-1.54-2.87-3.9-4.31-7.18-4.31Z"/><path class="cls-5" d="m246.33,38.72h-4.21v-5.7h4.21v-8.93h6.41v8.93h4.26v5.7h-4.26v21.86h-6.41v-21.86Z"/><path class="cls-5" d="m142.08,33.02v3.34c-1.8-2.72-4.67-4.05-8.67-4.05s-7.44,1.33-10.21,4.26c-2.57,2.67-3.95,6.26-3.95,10.11,0,7.92,5.68,14.05,13.45,14.48,0-.01,0-.02,0-.03-.02-1.43-.15-6.47-1.03-8.06-.39-.71-1.66-2.14-2.09-2.62-.09-.1-.22-.14-.35-.12-.87.16-4.26.74-5.13.29-.77-.4-1.92-2.4-2.37-3.23-.11-.2-.02-.44.18-.53l5.6-2.53c.11-.05.19-.14.22-.26.22-.91.49-2.12,1.15-2.7.87-.77,2.04-.99,2.61-1.06.19-.02.33-.19.33-.38v-4.56c0-.26.26-.46.51-.37,3.1,1.12,3.78,3.91,3.89,4.48.01.07.04.12.09.18.47.53,3.24,3.67,4.02,4.93,2.29,3.74,4.19,12.89,4.42,16.01h3.6v-27.55h-6.26Z"/><path class="cls-5" d="m283.01,33.02v3.34c-1.8-2.72-4.67-4.05-8.67-4.05s-7.44,1.33-10.21,4.26c-2.57,2.67-3.95,6.26-3.95,10.11,0,7.74,5.42,13.78,12.92,14.45.18-1.96.52-6.51-.09-8.17-.2-.55-.96-1.64-1.52-1.8-.95-.27-2.97.63-3.92.38-.75-.2-2.13-1.04-3.12-1.7-.62-.41-.71-1.27-.19-1.8.51-.52,1.08-1.11,1.3-1.4.87-1.11,2.45-5.06,2.45-5.06,0,0,.41-.51.22-1.42-.19-.9-1-2.2-.78-2.33.82-.47,3.23,1.95,3.23,1.95h1.47s-.41-3.7.08-4.26c1.69.15,2.55,3.07,3.63,4.31,2.65,3.03,5,5.07,6.17,7.51,1.49,3.11,2.32,10.16,2.62,13.23h4.63v-27.55h-6.26Z"/><g><g><path class="cls-2" d="m40.42,109.89c-2.25-1.75-9.62-2.14-11.83-.72-1.32.85-1.9,4.31-2.37,5.8-.75,2.39-4.13,5.13-4.14,7.64,0,2.98,1.63,3.72,3.67,3.69,3.96-.06,7.23-3.16,9.77-3.81,1.99-.51,6.83.49,8.16-.93.91-.97.42-3.96.09-5.23-.47-1.76-1.78-5.22-3.36-6.44Z"/><path d="m25.64,127.28c-1.46,0-2.55-.37-3.33-1.14-.81-.79-1.21-1.99-1.21-3.54,0-1.76,1.22-3.42,2.41-5.03.74-1,1.51-2.04,1.78-2.9.1-.31.2-.72.32-1.17.49-1.91,1.1-4.29,2.46-5.16,2.58-1.66,10.45-1.19,12.97.77h0c1.85,1.44,3.23,5.19,3.71,6.97.12.46,1.16,4.58-.32,6.15-1.12,1.2-3.47,1.14-5.73,1.09-1.12-.03-2.28-.05-2.91.11-.83.21-1.84.78-2.92,1.38-1.94,1.08-4.36,2.42-7.09,2.47-.05,0-.09,0-.14,0Zm7.54-18c-1.73,0-3.29.23-4.06.72-.7.45-1.3,2.76-1.62,4-.13.49-.24.93-.35,1.27-.37,1.17-1.23,2.35-2.07,3.48-.99,1.35-2.02,2.74-2.02,3.86,0,1.01.21,1.73.63,2.14.4.4,1.08.58,2.05.57,2.24-.03,4.32-1.19,6.16-2.22,1.19-.66,2.31-1.29,3.39-1.56.89-.23,2.13-.2,3.44-.17,1.48.03,3.73.08,4.25-.47.39-.42.32-2.55-.15-4.3-.5-1.87-1.76-4.95-3.01-5.92-1.13-.88-4.06-1.39-6.64-1.39Z"/></g><g><path class="cls-2" d="m29.62,97.58c0,2.01-1.82,4.85-3.84,4.85s-4.22-2.42-4.22-4.44,1.8-5.31,3.81-5.31,4.25,2.89,4.25,4.9Z"/><path d="m25.78,103.41c-2.53,0-5.2-2.79-5.2-5.42,0-2.49,2.15-6.29,4.8-6.29s5.23,3.37,5.23,5.89-2.27,5.83-4.82,5.83Zm-.41-9.75c-1.28,0-2.83,2.66-2.83,4.32,0,1.52,1.81,3.45,3.24,3.45s2.85-2.3,2.85-3.86-1.92-3.92-3.26-3.92Z"/></g><g><path class="cls-2" d="m21.56,108.48c.14,3.12-2.44,4.94-4.45,4.94s-4.37-1.96-4.45-3.97c-.14-3.24,2.56-3.95,4.57-3.95s4.24.97,4.33,2.98Z"/><path d="m17.11,114.41c-2.64,0-5.33-2.44-5.44-4.92-.06-1.41.33-2.56,1.16-3.42,1.23-1.28,3.07-1.55,4.4-1.55,2.55,0,5.2,1.35,5.31,3.92h0c.07,1.61-.48,3.11-1.56,4.23-1.04,1.09-2.49,1.74-3.88,1.74Zm.12-7.92c-.78,0-2.19.12-2.98.94-.45.47-.65,1.11-.61,1.98.06,1.42,1.91,3.03,3.47,3.03.84,0,1.79-.43,2.45-1.13.49-.52,1.07-1.42,1.01-2.78h0c-.07-1.49-2.04-2.04-3.34-2.04Z"/></g><g><path class="cls-2" d="m43.48,95.94c0,2.01.73,4.57-2.05,4.76-2.93.2-7.65-1.14-7.65-4.55s4.54-4.3,6.55-4.3,3.14,2.07,3.14,4.08Z"/><path d="m40.86,101.71c-2.12,0-4.89-.66-6.56-2.22-.98-.92-1.5-2.07-1.5-3.33,0-4.18,4.93-5.29,7.54-5.29s4.13,2.61,4.13,5.07c0,.33.02.67.04,1.01.1,1.69.27,4.51-3.01,4.74-.2.01-.42.02-.64.02Zm-.52-8.87c-1.55,0-5.57.6-5.57,3.32,0,.72.29,1.34.88,1.89,1.36,1.27,3.91,1.8,5.72,1.68,1.13-.08,1.3-.47,1.18-2.65-.02-.38-.04-.76-.04-1.13,0-1.5-.76-3.1-2.16-3.1Z"/></g><g><path class="cls-2" d="m55.73,109.83c0,2.01-1.61,5.93-4.17,4.82-2.8-1.23-5.88-6.45-5.88-8.47s3.58-2.58,5.53-2.05c2.8.76,4.52,3.68,4.52,5.69Z"/><path d="m52.45,115.83c-.42,0-.85-.09-1.28-.28-3.21-1.4-6.47-7.02-6.47-9.37,0-.84.39-1.59,1.12-2.15,1.44-1.1,4-1.3,5.65-.85,3.14.85,5.25,4.12,5.25,6.64,0,1.53-.83,4.32-2.6,5.48-.53.34-1.09.52-1.66.52Zm-2.8-10.9c-.98,0-2.04.22-2.63.67-.31.24-.35.43-.35.58,0,1.57,2.77,6.46,5.29,7.56.4.17.73.15,1.08-.08.96-.63,1.71-2.58,1.71-3.84,0-1.52-1.35-4.08-3.79-4.74-.37-.1-.83-.15-1.3-.15Z"/></g></g><g><g><path class="cls-3" d="m99.01,109.89c-2.25-1.75-9.62-2.14-11.83-.72-1.32.85-1.9,4.31-2.37,5.8-.75,2.39-4.13,5.13-4.14,7.64,0,2.98,1.63,3.72,3.67,3.69,3.96-.06,7.23-3.16,9.77-3.81,1.99-.51,6.83.49,8.16-.93.91-.97.42-3.96.09-5.23-.47-1.76-1.78-5.22-3.36-6.44Z"/><path d="m84.22,127.28c-1.46,0-2.55-.37-3.33-1.14-.81-.79-1.21-1.99-1.21-3.54,0-1.76,1.22-3.42,2.41-5.03.74-1,1.51-2.04,1.78-2.9.1-.31.2-.72.32-1.17.49-1.91,1.1-4.29,2.46-5.16,2.58-1.66,10.45-1.19,12.97.77h0c1.85,1.44,3.23,5.19,3.71,6.97.12.46,1.16,4.58-.32,6.15-1.12,1.2-3.46,1.15-5.73,1.09-1.12-.03-2.28-.05-2.91.11-.83.21-1.84.78-2.92,1.38-1.94,1.08-4.36,2.43-7.09,2.47-.05,0-.09,0-.14,0Zm7.54-18c-1.73,0-3.29.23-4.06.72-.7.45-1.3,2.76-1.61,4-.13.49-.24.93-.35,1.27-.37,1.17-1.23,2.35-2.07,3.48-.99,1.35-2.02,2.74-2.02,3.86,0,1.01.21,1.73.63,2.14.4.4,1.07.58,2.05.57,2.24-.03,4.32-1.19,6.16-2.22,1.19-.66,2.31-1.29,3.39-1.56.89-.23,2.13-.2,3.44-.17,1.48.03,3.73.08,4.25-.47.39-.42.32-2.55-.15-4.3-.5-1.87-1.76-4.95-3.01-5.92-1.13-.88-4.06-1.39-6.64-1.39Z"/></g><g><path class="cls-3" d="m88.21,97.58c0,2.01-1.82,4.85-3.84,4.85s-4.22-2.42-4.22-4.44,1.8-5.31,3.81-5.31,4.25,2.89,4.25,4.9Z"/><path d="m84.37,103.41c-2.53,0-5.2-2.79-5.2-5.42,0-2.49,2.15-6.29,4.8-6.29s5.23,3.37,5.23,5.89-2.27,5.83-4.82,5.83Zm-.41-9.75c-1.28,0-2.83,2.66-2.83,4.32,0,1.52,1.81,3.45,3.24,3.45s2.85-2.3,2.85-3.86-1.92-3.92-3.26-3.92Z"/></g><g><path class="cls-3" d="m80.15,108.48c.14,3.12-2.44,4.94-4.45,4.94s-4.37-1.96-4.45-3.97c-.14-3.24,2.56-3.95,4.57-3.95s4.24.97,4.33,2.98Z"/><path d="m75.7,114.41c-2.64,0-5.33-2.44-5.44-4.92-.06-1.41.33-2.56,1.16-3.42,1.23-1.28,3.07-1.55,4.4-1.55,2.55,0,5.2,1.35,5.31,3.92h0c.07,1.61-.48,3.11-1.56,4.23-1.04,1.09-2.49,1.74-3.88,1.74Zm.12-7.92c-.78,0-2.19.12-2.98.94-.45.47-.65,1.11-.61,1.98.06,1.42,1.91,3.03,3.47,3.03.84,0,1.79-.43,2.46-1.13.49-.52,1.07-1.42,1.01-2.78h0c-.07-1.49-2.04-2.04-3.35-2.04Z"/></g><g><path class="cls-3" d="m102.07,95.94c0,2.01.73,4.57-2.05,4.76-2.93.2-7.65-1.14-7.65-4.55s4.54-4.3,6.55-4.3,3.14,2.07,3.14,4.08Z"/><path d="m99.45,101.71c-2.12,0-4.89-.66-6.56-2.22-.98-.92-1.5-2.07-1.5-3.33,0-4.18,4.93-5.29,7.54-5.29s4.13,2.61,4.13,5.07c0,.33.02.67.04,1.01.1,1.69.27,4.51-3.01,4.74-.2.01-.42.02-.64.02Zm-.52-8.87c-1.55,0-5.57.6-5.57,3.32,0,.72.29,1.34.88,1.89,1.36,1.27,3.91,1.8,5.72,1.68,1.13-.08,1.3-.47,1.18-2.65-.02-.38-.04-.76-.04-1.13,0-1.5-.76-3.1-2.16-3.1Z"/></g><g><path class="cls-3" d="m114.32,109.83c0,2.01-1.61,5.93-4.17,4.82-2.8-1.23-5.88-6.45-5.88-8.47s3.58-2.58,5.53-2.05c2.8.76,4.52,3.68,4.52,5.69Z"/><path d="m111.04,115.83c-.42,0-.85-.09-1.28-.28-3.21-1.4-6.47-7.02-6.47-9.37,0-.84.39-1.59,1.12-2.15,1.44-1.1,4.01-1.3,5.65-.85,3.14.85,5.25,4.12,5.25,6.64,0,1.53-.83,4.32-2.6,5.48-.53.34-1.09.52-1.66.52Zm-2.8-10.9c-.98,0-2.04.22-2.63.67-.31.24-.35.43-.35.58,0,1.57,2.77,6.46,5.29,7.56.4.17.73.15,1.08-.08.96-.63,1.71-2.58,1.71-3.84,0-1.52-1.35-4.08-3.79-4.74-.37-.1-.83-.15-1.3-.15Z"/></g></g><g><g><path class="cls-2" d="m157.54,109.89c-2.25-1.75-9.62-2.14-11.83-.72-1.32.85-1.9,4.31-2.37,5.8-.75,2.39-4.13,5.13-4.14,7.64,0,2.98,1.63,3.72,3.67,3.69,3.96-.06,7.23-3.16,9.77-3.81,1.99-.51,6.83.49,8.16-.93.91-.97.42-3.96.09-5.23-.47-1.76-1.78-5.22-3.36-6.44Z"/><path d="m142.76,127.28c-1.46,0-2.55-.37-3.33-1.14-.81-.79-1.21-1.99-1.21-3.54,0-1.76,1.22-3.42,2.41-5.03.74-1,1.51-2.04,1.78-2.9.1-.31.2-.72.32-1.17.49-1.91,1.1-4.29,2.46-5.16,2.58-1.66,10.45-1.19,12.97.77h0c1.85,1.44,3.23,5.19,3.71,6.97.12.46,1.16,4.58-.32,6.15-1.12,1.2-3.46,1.15-5.73,1.09-1.12-.03-2.28-.05-2.91.11-.83.21-1.84.78-2.92,1.38-1.94,1.08-4.36,2.43-7.09,2.47-.05,0-.09,0-.14,0Zm7.54-18c-1.73,0-3.29.23-4.06.72-.7.45-1.3,2.76-1.62,4-.13.49-.24.93-.35,1.27-.37,1.17-1.23,2.35-2.07,3.48-.99,1.35-2.02,2.74-2.02,3.86,0,1.01.21,1.73.63,2.14.4.4,1.07.58,2.05.57,2.24-.03,4.32-1.19,6.16-2.22,1.19-.66,2.31-1.29,3.39-1.56.89-.23,2.13-.2,3.44-.17,1.48.03,3.73.08,4.25-.47.39-.42.32-2.55-.15-4.3-.5-1.87-1.76-4.95-3.01-5.92-1.13-.88-4.06-1.39-6.63-1.39Z"/></g><g><path class="cls-2" d="m146.74,97.58c0,2.01-1.82,4.85-3.84,4.85s-4.22-2.42-4.22-4.44,1.8-5.31,3.81-5.31,4.25,2.89,4.25,4.9Z"/><path d="m142.9,103.41c-2.53,0-5.2-2.79-5.2-5.42,0-2.49,2.15-6.29,4.8-6.29s5.23,3.37,5.23,5.89-2.27,5.83-4.82,5.83Zm-.41-9.75c-1.28,0-2.83,2.66-2.83,4.32,0,1.52,1.81,3.45,3.24,3.45s2.85-2.3,2.85-3.86-1.92-3.92-3.26-3.92Z"/></g><g><path class="cls-2" d="m138.68,108.48c.14,3.12-2.44,4.94-4.45,4.94s-4.37-1.96-4.45-3.97c-.14-3.24,2.56-3.95,4.57-3.95s4.24.97,4.33,2.98Z"/><path d="m134.23,114.41c-2.64,0-5.33-2.44-5.44-4.92-.06-1.41.33-2.56,1.16-3.42,1.23-1.28,3.07-1.55,4.4-1.55,2.55,0,5.2,1.35,5.31,3.92h0c.07,1.61-.48,3.11-1.56,4.23-1.04,1.09-2.49,1.74-3.88,1.74Zm.12-7.92c-.78,0-2.19.12-2.98.94-.45.47-.65,1.11-.61,1.98.06,1.42,1.91,3.03,3.47,3.03.84,0,1.79-.43,2.46-1.13.49-.52,1.07-1.42,1.01-2.78h0c-.07-1.49-2.04-2.04-3.35-2.04Z"/></g><g><path class="cls-2" d="m160.61,95.94c0,2.01.73,4.57-2.05,4.76-2.93.2-7.65-1.14-7.65-4.55s4.54-4.3,6.55-4.3,3.14,2.07,3.14,4.08Z"/><path d="m157.99,101.71c-2.12,0-4.89-.66-6.56-2.22-.98-.92-1.5-2.07-1.5-3.33,0-4.18,4.93-5.29,7.54-5.29s4.13,2.61,4.13,5.07c0,.33.02.67.04,1.01.1,1.69.27,4.51-3.01,4.74-.2.01-.42.02-.64.02Zm-.52-8.87c-1.55,0-5.57.6-5.57,3.32,0,.72.29,1.34.88,1.89,1.36,1.27,3.91,1.8,5.72,1.68,1.13-.08,1.3-.47,1.18-2.65-.02-.38-.04-.76-.04-1.13,0-1.5-.76-3.1-2.16-3.1Z"/></g><g><path class="cls-2" d="m172.85,109.83c0,2.01-1.61,5.93-4.17,4.82-2.8-1.23-5.88-6.45-5.88-8.47s3.58-2.58,5.53-2.05c2.8.76,4.52,3.68,4.52,5.69Z"/><path d="m169.57,115.83c-.42,0-.85-.09-1.28-.28-3.21-1.4-6.47-7.02-6.47-9.37,0-.84.39-1.59,1.12-2.15,1.44-1.1,4-1.3,5.65-.85,3.14.85,5.25,4.12,5.25,6.64,0,1.53-.83,4.32-2.6,5.48-.53.34-1.09.52-1.66.52Zm-2.8-10.9c-.98,0-2.04.22-2.63.67-.31.24-.35.43-.35.58,0,1.57,2.77,6.46,5.29,7.56.39.17.73.15,1.08-.08.96-.63,1.71-2.58,1.71-3.84,0-1.52-1.35-4.08-3.79-4.74-.37-.1-.83-.15-1.3-.15Z"/></g></g><g><g><path class="cls-2" d="m275.15,109.89c-2.25-1.75-9.62-2.14-11.83-.72-1.32.85-1.9,4.31-2.37,5.8-.75,2.39-4.13,5.13-4.14,7.64,0,2.98,1.63,3.72,3.67,3.69,3.96-.06,7.23-3.16,9.77-3.81,1.99-.51,6.83.49,8.16-.93.91-.97.42-3.96.09-5.23-.47-1.76-1.78-5.22-3.36-6.44Z"/><path d="m260.37,127.28c-1.46,0-2.55-.37-3.33-1.14-.81-.79-1.21-1.99-1.21-3.54,0-1.76,1.22-3.42,2.41-5.03.74-1,1.5-2.04,1.78-2.9.1-.31.2-.72.32-1.16.49-1.91,1.1-4.3,2.46-5.17,2.58-1.66,10.46-1.19,12.97.77h0c1.85,1.44,3.23,5.19,3.71,6.97.12.46,1.16,4.58-.32,6.15-1.12,1.19-3.46,1.14-5.73,1.09-1.12-.02-2.28-.05-2.91.11-.83.21-1.84.78-2.92,1.38-1.94,1.08-4.36,2.43-7.09,2.47-.05,0-.09,0-.14,0Zm7.54-18c-1.73,0-3.29.23-4.06.72-.7.45-1.3,2.76-1.62,4-.13.49-.24.92-.35,1.26-.37,1.17-1.23,2.35-2.07,3.48-.99,1.35-2.02,2.74-2.02,3.86,0,1.01.21,1.73.63,2.14.4.4,1.09.58,2.05.57,2.24-.03,4.32-1.19,6.16-2.22,1.19-.66,2.31-1.29,3.38-1.56.89-.23,2.13-.2,3.44-.17,1.49.03,3.73.08,4.25-.47.39-.42.32-2.55-.15-4.3-.5-1.87-1.76-4.95-3.01-5.92h0c-1.13-.88-4.06-1.39-6.63-1.39Z"/></g><g><path class="cls-2" d="m264.35,97.58c0,2.01-1.82,4.85-3.84,4.85s-4.22-2.42-4.22-4.44,1.8-5.31,3.81-5.31,4.25,2.89,4.25,4.9Z"/><path d="m260.52,103.41c-2.53,0-5.2-2.79-5.2-5.42,0-2.49,2.15-6.29,4.8-6.29s5.23,3.37,5.23,5.89-2.27,5.83-4.82,5.83Zm-.41-9.75c-1.28,0-2.83,2.66-2.83,4.32,0,1.52,1.81,3.45,3.24,3.45s2.85-2.3,2.85-3.86-1.92-3.92-3.26-3.92Z"/></g><g><path class="cls-2" d="m256.3,108.48c.14,3.12-2.44,4.94-4.45,4.94s-4.37-1.96-4.45-3.97c-.14-3.24,2.56-3.95,4.57-3.95s4.24.97,4.33,2.98Z"/><path d="m251.85,114.41c-2.64,0-5.33-2.44-5.44-4.92-.06-1.41.33-2.56,1.15-3.42,1.23-1.28,3.07-1.55,4.4-1.55,2.55,0,5.2,1.35,5.31,3.92h0c.07,1.61-.48,3.11-1.56,4.23-1.04,1.09-2.49,1.74-3.88,1.74Zm.12-7.92c-.78,0-2.19.12-2.98.94-.45.47-.65,1.11-.61,1.98.06,1.42,1.91,3.03,3.47,3.03.85,0,1.79-.43,2.46-1.13.49-.52,1.07-1.42,1.01-2.78h0c-.07-1.5-2.04-2.04-3.35-2.04Z"/></g><g><path class="cls-2" d="m278.22,95.94c0,2.01.73,4.57-2.05,4.76-2.93.2-7.65-1.14-7.65-4.55s4.54-4.3,6.55-4.3,3.14,2.07,3.14,4.08Z"/><path d="m275.6,101.71c-2.12,0-4.89-.66-6.56-2.22-.98-.92-1.5-2.07-1.5-3.33,0-4.18,4.93-5.29,7.54-5.29s4.13,2.61,4.13,5.07c0,.33.02.67.04,1.01.1,1.69.27,4.51-3.01,4.74-.2.01-.42.02-.64.02Zm-.52-8.87c-1.55,0-5.57.6-5.57,3.32,0,.72.29,1.34.88,1.89,1.35,1.27,3.9,1.8,5.72,1.68,1.13-.08,1.3-.47,1.18-2.65-.02-.38-.04-.76-.04-1.13,0-1.5-.76-3.1-2.16-3.1Z"/></g><g><path class="cls-2" d="m290.46,109.83c0,2.01-1.61,5.93-4.17,4.82-2.8-1.23-5.88-6.45-5.88-8.47s3.58-2.58,5.53-2.05c2.8.76,4.52,3.68,4.52,5.69Z"/><path d="m287.18,115.83c-.42,0-.85-.09-1.28-.28-3.21-1.4-6.47-7.02-6.47-9.37,0-.84.39-1.59,1.12-2.15,1.44-1.1,4-1.3,5.65-.85,3.14.85,5.25,4.12,5.25,6.64,0,1.53-.83,4.32-2.6,5.48-.53.34-1.09.52-1.66.52Zm-2.8-10.9c-.98,0-2.04.22-2.63.67-.31.24-.35.44-.35.58,0,1.57,2.77,6.46,5.29,7.56.4.17.73.15,1.08-.08.96-.63,1.71-2.58,1.71-3.84,0-1.52-1.35-4.08-3.79-4.74-.37-.1-.83-.15-1.3-.15Z"/></g></g><g><g><path class="cls-3" d="m216.13,109.89c-2.25-1.75-9.62-2.14-11.83-.72-1.32.85-1.9,4.31-2.37,5.8-.75,2.39-4.13,5.13-4.14,7.64,0,2.98,1.63,3.72,3.67,3.69,3.96-.06,7.23-3.16,9.77-3.81,1.99-.51,6.83.49,8.16-.93.91-.97.42-3.96.09-5.23-.47-1.76-1.78-5.22-3.36-6.44Z"/><path d="m201.34,127.28c-1.46,0-2.55-.37-3.33-1.14-.81-.79-1.21-1.99-1.21-3.54,0-1.76,1.22-3.42,2.41-5.03.74-1,1.51-2.04,1.78-2.9.1-.31.2-.72.32-1.17.49-1.91,1.1-4.29,2.46-5.17,2.57-1.66,10.45-1.19,12.97.77h0c1.85,1.44,3.23,5.19,3.71,6.97.12.46,1.16,4.57-.32,6.15-1.12,1.2-3.47,1.14-5.73,1.09-1.12-.03-2.28-.05-2.91.11-.83.21-1.84.78-2.92,1.38-1.94,1.08-4.36,2.43-7.09,2.47-.05,0-.09,0-.14,0Zm7.54-18c-1.73,0-3.29.23-4.06.72-.7.45-1.3,2.76-1.62,4-.13.49-.24.93-.35,1.27-.37,1.17-1.23,2.34-2.07,3.48-.99,1.35-2.02,2.74-2.02,3.86,0,1.01.21,1.73.63,2.14.4.4,1.07.58,2.05.57,2.24-.03,4.32-1.19,6.16-2.22,1.19-.66,2.31-1.29,3.39-1.56.89-.23,2.13-.2,3.44-.17,1.48.03,3.73.08,4.25-.47.39-.42.32-2.55-.15-4.3-.5-1.87-1.76-4.95-3.01-5.92h0c-1.13-.88-4.06-1.39-6.64-1.39Z"/></g><g><path class="cls-3" d="m205.33,97.58c0,2.01-1.82,4.85-3.84,4.85s-4.22-2.42-4.22-4.44,1.8-5.31,3.81-5.31,4.25,2.89,4.25,4.9Z"/><path d="m201.49,103.41c-2.53,0-5.2-2.79-5.2-5.42,0-2.49,2.15-6.29,4.8-6.29s5.23,3.37,5.23,5.89-2.27,5.83-4.82,5.83Zm-.41-9.75c-1.28,0-2.83,2.66-2.83,4.32,0,1.52,1.81,3.45,3.24,3.45s2.85-2.3,2.85-3.86-1.92-3.92-3.26-3.92Z"/></g><g><path class="cls-3" d="m197.27,108.48c.14,3.12-2.44,4.94-4.45,4.94s-4.37-1.96-4.45-3.97c-.14-3.24,2.56-3.95,4.57-3.95s4.24.97,4.33,2.98Z"/><path d="m192.82,114.41c-2.64,0-5.33-2.44-5.44-4.92-.06-1.41.33-2.56,1.15-3.42,1.23-1.28,3.07-1.55,4.4-1.55,2.55,0,5.2,1.35,5.31,3.92h0c.07,1.61-.48,3.11-1.56,4.23-1.04,1.09-2.49,1.74-3.88,1.74Zm.12-7.92c-.78,0-2.19.12-2.98.94-.45.47-.65,1.11-.61,1.98.06,1.42,1.91,3.03,3.47,3.03.84,0,1.79-.43,2.46-1.13.49-.52,1.07-1.42,1.01-2.78h0c-.06-1.5-2.04-2.04-3.34-2.04Z"/></g><g><path class="cls-3" d="m219.19,95.94c0,2.01.73,4.57-2.05,4.76-2.93.2-7.65-1.14-7.65-4.55s4.54-4.3,6.55-4.3,3.14,2.07,3.14,4.08Z"/><path d="m216.57,101.71c-2.12,0-4.89-.66-6.56-2.22-.98-.92-1.5-2.07-1.5-3.33,0-4.18,4.93-5.29,7.54-5.29s4.13,2.61,4.13,5.07c0,.33.02.67.04,1.01.1,1.69.27,4.51-3.01,4.74-.2.01-.42.02-.64.02Zm-.52-8.87c-1.55,0-5.57.6-5.57,3.32,0,.72.29,1.34.88,1.89,1.35,1.27,3.9,1.8,5.72,1.68,1.13-.08,1.3-.48,1.18-2.66-.02-.38-.04-.76-.04-1.13,0-1.5-.76-3.1-2.16-3.1Z"/></g><g><path class="cls-3" d="m231.44,109.83c0,2.01-1.61,5.93-4.17,4.82-2.8-1.23-5.88-6.45-5.88-8.47s3.58-2.58,5.53-2.05c2.8.76,4.52,3.68,4.52,5.69Z"/><path d="m228.16,115.83c-.42,0-.85-.09-1.28-.28-3.21-1.4-6.47-7.02-6.47-9.37,0-.84.39-1.59,1.12-2.15,1.44-1.1,4-1.3,5.65-.85,3.14.85,5.25,4.12,5.25,6.64,0,1.53-.83,4.32-2.6,5.48-.53.34-1.09.52-1.66.52Zm-2.8-10.9c-.98,0-2.04.22-2.63.67-.31.24-.35.43-.35.58,0,1.57,2.77,6.46,5.29,7.56.4.17.73.15,1.08-.08.96-.63,1.71-2.58,1.71-3.84,0-1.52-1.35-4.08-3.79-4.74-.37-.1-.83-.15-1.3-.15Z"/></g></g><g><path class="cls-5" d="m228.85,53.45c-.2.15-.41.29-.63.42l-2.51,7.33c2.01-.21,3.86-.79,5.54-1.74l-2.39-6.02Z"/><path class="cls-5" d="m215.14,47.56c.05-.17.09-.19.15-.19s.08.01.16.18l5.24,13.49h.39s2.1-6.14,2.1-6.14c-4.22-.37-6.92-3.42-6.92-8.27s3.18-8.11,7.8-8.11,7.8,3.23,7.8,7.95c0,.74-.07,1.44-.19,2.09l3.17,7.96c2.48-2.74,3.69-6.07,3.69-10s-1.64-7.59-4.52-10.36c-2.77-2.62-6.11-3.95-10.11-3.95-3.74,0-7.34,1.54-10.11,4.31s-4.13,6.29-4.16,10.06c-.02,3.4,1.05,6.49,3.04,9.1l2.45-8.11Z"/></g><path class="cls-1" d="m221.07,70.18l-5.45-14.02-2.64,8.73H9.29c-.41,0-.74-.33-.74-.74h0c0-.41.33-.74.74-.74h202.6l3.56-11.78,5.53,14.24,7.39-21.6,7.53,18.93,52.63-.04c.41,0,.74.34.74.75h0c0,.4-.33.73-.74.73l-53.64.03-6.42-16.14-7.41,21.65Z"/></svg>